PathFileType	3	(X/Y/Z)	D:\Jess\Healthy\Labelled\HA22\20251031\SRRun01.trc
DataRate	CameraRate	NumFrames	NumMarkers	Units	OrigDataRate	OrigDataStartFrame	OrigNumFrames
250.0	250.0	4	37	mm	250.0	35000	2501
Frame#	Time	C7			T10			CLAV			LSHO			RSHO			LASIS			RASIS			LPSIS			RPSIS			LILCR			RILCR			LGTR			LTHI			LLTHI			LLEP			LMEP			LPSH			LLSH			LDSH			LLMAL			LMMAL			LTOE			L5TH			LHEE			RGTR			RTHI			RLTHI			RLEP			RMEP			RPSH			RLSH			RDSH			RLMAL			RMMAL			RTOE			R5TH			RHEE			
		X1	Y1	Z1	X2	Y2	Z2	X3	Y3	Z3	X4	Y4	Z4	X5	Y5	Z5	X6	Y6	Z6	X7	Y7	Z7	X8	Y8	Z8	X9	Y9	Z9	X10	Y10	Z10	X11	Y11	Z11	X12	Y12	Z12	X13	Y13	Z13	X14	Y14	Z14	X15	Y15	Z15	X16	Y16	Z16	X17	Y17	Z17	X18	Y18	Z18	X19	Y19	Z19	X20	Y20	Z20	X21	Y21	Z21	X22	Y22	Z22	X23	Y23	Z23	X24	Y24	Z24	X25	Y25	Z25	X26	Y26	Z26	X27	Y27	Z27	X28	Y28	Z28	X29	Y29	Z29	X30	Y30	Z30	X31	Y31	Z31	X32	Y32	Z32	X33	Y33	Z33	X34	Y34	Z34	X35	Y35	Z35	X36	Y36	Z36	X37	Y37	Z37	

1	139.996	825.1434751754192	1547.243301107435	-948.3145240586798	845.455727299368	1293.71954073941	-876.9958498900608	796.3629480851628	1452.029645998657	-1088.238000346095	657.2607603320142	1553.424807767789	-971.8701939934776	973.1875685500265	1538.718781175418	-1046.790139360014	718.0743574876808	1046.26954019192	-1017.638760306175	942.1536646570609	1025.111792024197	-1043.228774218921	829.3527426498606	1074.590008399194	-840.7974498588491	873.4206847813911	1075.183247950049	-848.0952238485004	674.1989283013488	1118.992779424166	-933.6122482711844	988.2093600174122	1113.883997697038	-1005.309906826958	648.0498320296268	902.6589889772652	-978.5011279781853	728.9872600417099	809.8226950651165	-1126.182180602775	678.6304623966257	689.0578631616595	-1040.87741144766	706.5620969749194	540.5272191125879	-1082.163424716868	nan	nan	nan	768.2346686350149	432.0060309711682	-1136.928053323387	721.942279527351	324.5707124717256	-1043.039823868056	793.5312266303312	239.0969562305579	-1086.123428109092	770.2089196370066	120.7953827495533	-1005.752998678171	nan	nan	nan	782.4525119953101	69.24270015688258	-1163.436499154722	736.9058432016093	44.13628892845015	-1115.269077295718	834.2028430150224	87.89875866989854	-918.0061909879998	1014.748705912784	884.4788491133511	-957.8757338040351	926.8754715894811	713.7843991011797	-1036.214636553418	992.9659694935566	663.9532464826842	-934.4538311163983	967.1674178062432	530.4091292594899	-878.1176070430964	nan	nan	nan	910.8545312712497	451.3594734133172	-788.6089866425215	971.248812678886	523.5021320749306	-678.6007632769728	902.6094464148114	464.8464287254308	-590.3038983330734	940.2243020430041	516.143407625496	-446.4441167522534	nan	nan	nan	905.7829074931057	363.4342135003157	-382.1794731802821	944.859386674379	408.6313073194045	-348.0894437951187	887.1353319071962	602.4371837530891	-425.6658135231048	
2	140	824.1451066734326	1544.722622537099	-947.7910426861338	844.6105103696226	1291.315162886089	-876.2296886905449	796.6753066764547	1448.703467475903	-1088.467565513571	656.0085482557583	1549.88507164414	-972.4904955983131	973.3654796103878	1535.831168104366	-1045.419380204448	718.0939731728398	1042.930741557257	-1016.911599730337	942.3540873164384	1021.670250429293	-1042.01702417728	829.4673933483954	1071.05496291785	-839.6516405335726	873.6116079893434	1071.39096724153	-846.6710663919306	674.2033890207742	1114.561124396252	-933.472494884121	988.9858836722897	1109.29135977026	-1003.409427520994	648.182237589023	899.5104847607852	-977.4395021718134	728.3009485978499	805.3782641410719	-1124.867250539686	680.254206008836	685.9741079745207	-1038.049025856028	708.2610726281285	537.8832333306361	-1079.727918481649	nan	nan	nan	770.2919443161478	429.2120872825238	-1132.742016996771	723.387159504627	323.5209693858298	-1036.876265952149	794.7550005313823	237.1931658617454	-1077.537810423717	771.1614200556191	121.0745426934827	-994.3687829371255	nan	nan	nan	783.0160621791028	68.73850233476098	-1151.253991457461	737.2655888958386	44.39629030064467	-1102.947647107102	834.8490007274767	88.2776756196504	-906.0212331907351	1014.839516819468	880.4810360976279	-958.5590045291023	929.0665858043313	712.0551794081493	-1039.317315893437	994.5868140119011	660.604009738748	-938.0428859291753	968.8568042873889	527.2784724560216	-884.9939747969979	nan	nan	nan	912.3720721178188	449.3046246758414	-795.8783798939286	972.4754911649427	523.6055693340847	-686.9259394096092	904.0347637770705	465.9254513860153	-598.0604586218491	940.7342086684866	520.1507886942208	-455.3797514954253	nan	nan	nan	908.3074039048672	367.7830200132478	-389.6809230724188	947.3296024139236	413.7153997760645	-356.5554809234401	886.700027610583	606.084275861495	-434.9248532073154	
3	140.004	823.1596956662785	1542.219742383437	-947.2687374781175	843.7689546070427	1288.931919351736	-875.4654330428773	796.979921607374	1445.413743913542	-1088.68714221614	654.7673197287234	1546.378208345784	-973.0978191867102	973.5400015663892	1532.968552406613	-1044.06669735787	718.1197681929712	1039.628428632788	-1016.19278894128	942.5528795015848	1018.261382194988	-1040.808803134735	829.5811765898814	1067.574561613043	-838.518373353018	873.7994211886611	1067.657078893247	-845.2604573148083	674.2025326681558	1110.198776096205	-933.3131077956583	989.752660943032	1104.77258679223	-1001.513376482433	648.3224593932024	896.4024064560946	-976.3856776337726	727.6955431496577	801.011950570639	-1123.567577954677	681.8386631487621	682.9204740706076	-1035.294589820526	709.9341254695657	535.2514983814646	-1077.326447106243	nan	nan	nan	772.318351840581	426.4227985597288	-1128.583338896341	724.8089871745592	322.4604946368394	-1030.770670408031	795.9609444276997	235.296669000966	-1069.0268938186	772.0916409269669	121.3408197458309	-983.0911151497297	nan	nan	nan	783.5663256479203	68.23925807262886	-1139.189956573972	737.6157666227003	44.64787009746058	-1090.747679807384	835.4845207234313	88.63793876144224	-894.1507174118439	1014.931547541343	876.5327577977803	-959.2158732400983	931.2095511889055	710.3294564003412	-1042.395781854955	996.1999640566773	657.2797777841339	-941.6137952641785	970.5319465430007	524.158601001145	-891.8212954930576	nan	nan	nan	913.8749324367218	447.2493315329157	-803.088943761605	973.6936465274483	523.6991772102793	-695.1978263914536	905.4467092384643	466.9897944493918	-605.7620708814612	941.2418062372276	524.1177029364195	-464.2509051969407	nan	nan	nan	910.8028808808939	372.0878598385237	-397.129220144268	949.7766624831488	418.7436278906824	-364.9580219401157	886.2850205859087	609.7056945959691	-444.1105306574523	
4	140.008	822.1941090941863	1539.773409316466	-946.7500355273291	842.9289013408169	1286.610184760098	-874.7048717700966	797.2868967294568	1442.215754170972	-1088.888486569726	653.5518003932957	1542.955144247752	-973.706696105668	973.7117633100783	1530.181208111728	-1042.726887751822	718.1627468185777	1036.41245926668	-1015.494413998692	942.7552552180265	1014.943499703313	-1039.596618754685	829.6823303630175	1064.223862478474	-837.4085282135572	873.9702997974784	1064.059965254103	-843.8719649462048	674.1927408185742	1105.988582461381	-933.1283532318511	990.5022985165614	1100.416987440226	-999.6098310113672	648.4791252926283	893.3841162476724	-975.3395421591919	727.2386630036485	796.7815145899816	-1122.253284553262	683.3544739325664	679.9352383694927	-1032.61603948522	711.5616866352834	532.6485603239184	-1074.900972028364	nan	nan	nan	774.2868945783126	423.6433928391379	-1124.384164121172	726.1873122687309	321.3899546741708	-1024.677140570932	797.133150406641	233.4233061610591	-1060.555258504465	772.9759044901836	121.5960610273501	-971.9125714515682	nan	nan	nan	784.0911493057447	67.74787232462511	-1127.241812511305	737.9476638750701	44.88515921372156	-1078.668345490415	836.0935489130012	88.98611628997685	-882.3917082843871	1015.026364903907	872.7094429102284	-959.8161747457307	933.2701564768608	708.6718001332554	-1045.458982943564	997.8036934415182	654.052748496678	-945.1974861098976	972.1877279144871	521.1112875432291	-898.6313229980285	nan	nan	nan	915.3519194622527	445.2300853463033	-810.2812523478829	974.9022184454398	523.7803556116215	-703.4434620638771	906.8360200297714	468.0166713140198	-613.4422073283176	941.7538502498238	527.9621442914779	-473.0659042429144	nan	nan	nan	913.2393455053613	376.2496611721457	-404.5869888745656	952.1790476405176	423.5939219095438	-373.3379246497071	885.9243259526601	613.2275858934928	-453.199103388788	
